<svg width="248" height="120" viewBox="0 0 248 120" fill="none" xmlns="http://www.w3.org/2000/svg">
<g opacity="0.95">
<path d="M21.7383 55.0693C26.25 55.0693 29.7819 56.8353 32.334 60.3672C34.8861 63.8763 36.1621 68.6956 36.1621 74.8252C36.1621 81.137 34.8405 86.0247 32.1973 89.4883C29.5768 92.9518 25.9993 94.6836 21.4648 94.6836C16.9759 94.6836 13.4554 93.0544 10.9033 89.7959H10.1855L8.44238 94H0.478516V40.8164H10.9033V53.1895C10.9033 54.7617 10.7666 57.2796 10.4932 60.7432H10.9033C13.3415 56.9606 16.9531 55.0693 21.7383 55.0693ZM18.3887 63.4092C15.8138 63.4092 13.9339 64.2067 12.749 65.8018C11.5641 67.374 10.9489 69.9831 10.9033 73.6289V74.7568C10.9033 78.8584 11.5072 81.7979 12.7148 83.5752C13.9453 85.3525 15.8822 86.2412 18.5254 86.2412C20.6673 86.2412 22.3649 85.2614 23.6182 83.3018C24.8942 81.3193 25.5322 78.4482 25.5322 74.6885C25.5322 70.9287 24.8942 68.1146 23.6182 66.2461C22.3421 64.3548 20.599 63.4092 18.3887 63.4092Z" fill="#23ACCF"/>
<path d="M69.043 94L67.0264 88.8047H66.7529C64.9984 91.015 63.1868 92.5531 61.3184 93.4189C59.4727 94.262 57.0573 94.6836 54.0723 94.6836C50.4036 94.6836 47.5098 93.6354 45.3906 91.5391C43.2943 89.4427 42.2461 86.4577 42.2461 82.584C42.2461 78.528 43.6589 75.543 46.4844 73.6289C49.3327 71.6921 53.6165 70.6211 59.3359 70.416L65.9668 70.2109V68.5361C65.9668 64.6624 63.9844 62.7256 60.0195 62.7256C56.9661 62.7256 53.3773 63.6484 49.2529 65.4941L45.8008 58.4531C50.1986 56.1517 55.0749 55.001 60.4297 55.001C65.5566 55.001 69.4873 56.1175 72.2217 58.3506C74.9561 60.5837 76.3232 63.9788 76.3232 68.5361V94H69.043ZM65.9668 76.2949L61.9336 76.4316C58.903 76.5228 56.6471 77.0697 55.166 78.0723C53.6849 79.0749 52.9443 80.6016 52.9443 82.6523C52.9443 85.5918 54.6305 87.0615 58.0029 87.0615C60.4183 87.0615 62.3438 86.3665 63.7793 84.9766C65.2376 83.5866 65.9668 81.7409 65.9668 79.4395V76.2949Z" fill="#23ACCF"/>
<path d="M113.75 82.6523C113.75 86.5716 112.383 89.5566 109.648 91.6074C106.937 93.6582 102.869 94.6836 97.4463 94.6836C94.6663 94.6836 92.2965 94.4899 90.3369 94.1025C88.3773 93.738 86.543 93.1911 84.834 92.4619V83.8486C86.7708 84.7601 88.9469 85.5234 91.3623 86.1387C93.8005 86.7539 95.9424 87.0615 97.7881 87.0615C101.571 87.0615 103.462 85.9678 103.462 83.7803C103.462 82.96 103.211 82.2992 102.71 81.7979C102.209 81.2738 101.343 80.6927 100.112 80.0547C98.8818 79.3939 97.2412 78.6305 95.1904 77.7646C92.251 76.5342 90.0863 75.3949 88.6963 74.3467C87.3291 73.2985 86.3265 72.1022 85.6885 70.7578C85.0732 69.3906 84.7656 67.7158 84.7656 65.7334C84.7656 62.3382 86.0758 59.7178 88.6963 57.8721C91.3395 56.0036 95.0765 55.0693 99.9072 55.0693C104.51 55.0693 108.988 56.0719 113.34 58.0771L110.195 65.5967C108.281 64.7764 106.493 64.1042 104.829 63.5801C103.166 63.056 101.468 62.7939 99.7363 62.7939C96.6602 62.7939 95.1221 63.6257 95.1221 65.2891C95.1221 66.2233 95.612 67.0322 96.5918 67.7158C97.5944 68.3994 99.7705 69.4134 103.12 70.7578C106.105 71.9655 108.293 73.0934 109.683 74.1416C111.073 75.1898 112.098 76.3975 112.759 77.7646C113.42 79.1318 113.75 80.7611 113.75 82.6523Z" fill="#23ACCF"/>
<path d="M121.44 45.9092C121.44 42.514 123.332 40.8164 127.114 40.8164C130.897 40.8164 132.788 42.514 132.788 45.9092C132.788 47.527 132.31 48.7917 131.353 49.7031C130.418 50.5918 129.006 51.0361 127.114 51.0361C123.332 51.0361 121.44 49.3271 121.44 45.9092ZM132.31 94H121.885V55.7871H132.31V94Z" fill="#23ACCF"/>
<path d="M158.799 94.6836C146.904 94.6836 140.957 88.1553 140.957 75.0986C140.957 68.6045 142.575 63.6484 145.811 60.2305C149.046 56.7897 153.683 55.0693 159.722 55.0693C164.142 55.0693 168.107 55.9352 171.616 57.667L168.54 65.7334C166.899 65.0726 165.373 64.5371 163.96 64.127C162.547 63.694 161.134 63.4775 159.722 63.4775C154.299 63.4775 151.587 67.3285 151.587 75.0303C151.587 82.5042 154.299 86.2412 159.722 86.2412C161.727 86.2412 163.584 85.9792 165.293 85.4551C167.002 84.9082 168.711 84.0651 170.42 82.9258V91.8467C168.734 92.9176 167.025 93.6582 165.293 94.0684C163.584 94.4785 161.419 94.6836 158.799 94.6836Z" fill="#23ACCF"/>
<path d="M177.837 89.1123C177.837 87.1982 178.35 85.7513 179.375 84.7715C180.4 83.7917 181.893 83.3018 183.853 83.3018C185.744 83.3018 187.202 83.8031 188.228 84.8057C189.276 85.8083 189.8 87.2438 189.8 89.1123C189.8 90.9124 189.276 92.3366 188.228 93.3848C187.179 94.4102 185.721 94.9229 183.853 94.9229C181.938 94.9229 180.457 94.4216 179.409 93.4189C178.361 92.3936 177.837 90.958 177.837 89.1123Z" fill="#23ACCF"/>
<path d="M196.191 110.816C193.525 110.816 191.235 110.532 189.321 109.962V101.759C190.916 102.192 192.546 102.408 194.209 102.408C195.964 102.408 197.24 101.918 198.037 100.938C198.857 99.9587 199.268 98.5117 199.268 96.5977V55.7871H209.692V98.1357C209.692 102.192 208.519 105.313 206.172 107.501C203.825 109.711 200.498 110.816 196.191 110.816ZM198.823 45.9092C198.823 42.514 200.715 40.8164 204.497 40.8164C208.28 40.8164 210.171 42.514 210.171 45.9092C210.171 47.527 209.692 48.7917 208.735 49.7031C207.801 50.5918 206.388 51.0361 204.497 51.0361C200.715 51.0361 198.823 49.3271 198.823 45.9092Z" fill="#23ACCF"/>
<path d="M247.324 82.6523C247.324 86.5716 245.957 89.5566 243.223 91.6074C240.511 93.6582 236.444 94.6836 231.021 94.6836C228.241 94.6836 225.871 94.4899 223.911 94.1025C221.951 93.738 220.117 93.1911 218.408 92.4619V83.8486C220.345 84.7601 222.521 85.5234 224.937 86.1387C227.375 86.7539 229.517 87.0615 231.362 87.0615C235.145 87.0615 237.036 85.9678 237.036 83.7803C237.036 82.96 236.785 82.2992 236.284 81.7979C235.783 81.2738 234.917 80.6927 233.687 80.0547C232.456 79.3939 230.815 78.6305 228.765 77.7646C225.825 76.5342 223.66 75.3949 222.271 74.3467C220.903 73.2985 219.901 72.1022 219.263 70.7578C218.647 69.3906 218.34 67.7158 218.34 65.7334C218.34 62.3382 219.65 59.7178 222.271 57.8721C224.914 56.0036 228.651 55.0693 233.481 55.0693C238.084 55.0693 242.562 56.0719 246.914 58.0771L243.77 65.5967C241.855 64.7764 240.067 64.1042 238.403 63.5801C236.74 63.056 235.042 62.7939 233.311 62.7939C230.234 62.7939 228.696 63.6257 228.696 65.2891C228.696 66.2233 229.186 67.0322 230.166 67.7158C231.169 68.3994 233.345 69.4134 236.694 70.7578C239.679 71.9655 241.867 73.0934 243.257 74.1416C244.647 75.1898 245.672 76.3975 246.333 77.7646C246.994 79.1318 247.324 80.7611 247.324 82.6523Z" fill="#23ACCF"/>
</g>
<path d="M77.832 120V102.867H79.8242V118.195H87.3828V120H77.832Z" fill="black"/>
<path d="M90.3008 120V102.867H92.293V120H90.3008Z" fill="black"/>
<path d="M97.0039 102.867H101.844C104.117 102.867 105.762 103.207 106.777 103.887C107.793 104.566 108.301 105.641 108.301 107.109C108.301 108.125 108.016 108.965 107.445 109.629C106.883 110.285 106.059 110.711 104.973 110.906V111.023C107.574 111.469 108.875 112.836 108.875 115.125C108.875 116.656 108.355 117.852 107.316 118.711C106.285 119.57 104.84 120 102.98 120H97.0039V102.867ZM98.9961 110.203H102.277C103.684 110.203 104.695 109.984 105.312 109.547C105.93 109.102 106.238 108.355 106.238 107.309C106.238 106.348 105.895 105.656 105.207 105.234C104.52 104.805 103.426 104.59 101.926 104.59H98.9961V110.203ZM98.9961 111.891V118.301H102.57C103.953 118.301 104.992 118.035 105.688 117.504C106.391 116.965 106.742 116.125 106.742 114.984C106.742 113.922 106.383 113.141 105.664 112.641C104.953 112.141 103.867 111.891 102.406 111.891H98.9961Z" fill="black"/>
<path d="M114.559 112.875V120H112.566V102.867H117.266C119.367 102.867 120.918 103.27 121.918 104.074C122.926 104.879 123.43 106.09 123.43 107.707C123.43 109.973 122.281 111.504 119.984 112.301L124.637 120H122.281L118.133 112.875H114.559ZM114.559 111.164H117.289C118.695 111.164 119.727 110.887 120.383 110.332C121.039 109.77 121.367 108.93 121.367 107.812C121.367 106.68 121.031 105.863 120.359 105.363C119.695 104.863 118.625 104.613 117.148 104.613H114.559V111.164Z" fill="black"/>
<path d="M138.172 120L136.039 114.551H129.172L127.062 120H125.047L131.82 102.797H133.496L140.234 120H138.172ZM135.418 112.758L133.426 107.449C133.168 106.777 132.902 105.953 132.629 104.977C132.457 105.727 132.211 106.551 131.891 107.449L129.875 112.758H135.418Z" fill="black"/>
<path d="M144.582 112.875V120H142.59V102.867H147.289C149.391 102.867 150.941 103.27 151.941 104.074C152.949 104.879 153.453 106.09 153.453 107.707C153.453 109.973 152.305 111.504 150.008 112.301L154.66 120H152.305L148.156 112.875H144.582ZM144.582 111.164H147.312C148.719 111.164 149.75 110.887 150.406 110.332C151.062 109.77 151.391 108.93 151.391 107.812C151.391 106.68 151.055 105.863 150.383 105.363C149.719 104.863 148.648 104.613 147.172 104.613H144.582V111.164Z" fill="black"/>
<path d="M161.785 111.434L166.355 102.867H168.512L162.793 113.355V120H160.777V113.449L155.07 102.867H157.25L161.785 111.434Z" fill="black"/>
<g style="mix-blend-mode:luminosity">
<path d="M84.5 26V1L75.2534 14.5L71.5 19.25L84.5 26Z" fill="#DCDCDC"/>
<path d="M68.5 36.5C80.1308 36.7449 86.9332 36.5795 99.5 36.5C94.1408 32.6212 90.9295 30.2984 84.5 26C77.9773 30.0722 74.4671 32.3386 68.5 36.5Z" fill="#DCDCDC"/>
<path d="M55 12.5L71.5 19.25L75.2534 14.5C67.1919 13.9211 62.7957 13.3511 55 12.5Z" fill="#DCDCDC"/>
<path d="M97.5 19.25L114 12.5C105.927 13.4061 101.443 13.8652 93.7466 14.5L97.5 19.25Z" fill="#DCDCDC"/>
<path d="M55 12.5L68.5 36.5C74.4671 32.3386 77.9773 30.0722 84.5 26L71.5 19.25L55 12.5Z" fill="#BCBCBC"/>
<path d="M84.5 26L97.5 19.25L93.7466 14.5L84.5 1V26Z" fill="white"/>
<path d="M99.5 36.5L114 12.5L97.5 19.25L84.5 26C90.9295 30.2984 94.1408 32.6212 99.5 36.5Z" fill="white"/>
<path d="M55 12.5L68.5 36.5M55 12.5L71.5 19.25M55 12.5C62.7957 13.3511 67.1919 13.9211 75.2534 14.5M68.5 36.5C80.1308 36.7449 86.9332 36.5795 99.5 36.5M68.5 36.5C74.4671 32.3386 77.9773 30.0722 84.5 26M99.5 36.5L114 12.5M99.5 36.5C94.1408 32.6212 90.9295 30.2984 84.5 26M114 12.5L97.5 19.25M114 12.5C105.927 13.4061 101.443 13.8652 93.7466 14.5M84.5 26L97.5 19.25M84.5 26V1M84.5 26L71.5 19.25M97.5 19.25L93.7466 14.5M84.5 1L93.7466 14.5M84.5 1L75.2534 14.5M71.5 19.25L75.2534 14.5" stroke="#404040"/>
</g>
</svg>
