<svg width="248" height="80" viewBox="0 0 248 80" fill="none" xmlns="http://www.w3.org/2000/svg">
<g opacity="0.95">
<path d="M21.7383 15.0693C26.25 15.0693 29.7819 16.8353 32.334 20.3672C34.8861 23.8763 36.1621 28.6956 36.1621 34.8252C36.1621 41.137 34.8405 46.0247 32.1973 49.4883C29.5768 52.9518 25.9993 54.6836 21.4648 54.6836C16.9759 54.6836 13.4554 53.0544 10.9033 49.7959H10.1855L8.44238 54H0.478516V0.816406H10.9033V13.1895C10.9033 14.7617 10.7666 17.2796 10.4932 20.7432H10.9033C13.3415 16.9606 16.9531 15.0693 21.7383 15.0693ZM18.3887 23.4092C15.8138 23.4092 13.9339 24.2067 12.749 25.8018C11.5641 27.374 10.9489 29.9831 10.9033 33.6289V34.7568C10.9033 38.8584 11.5072 41.7979 12.7148 43.5752C13.9453 45.3525 15.8822 46.2412 18.5254 46.2412C20.6673 46.2412 22.3649 45.2614 23.6182 43.3018C24.8942 41.3193 25.5322 38.4482 25.5322 34.6885C25.5322 30.9287 24.8942 28.1146 23.6182 26.2461C22.3421 24.3548 20.599 23.4092 18.3887 23.4092Z" fill="#23ACCF"/>
<path d="M69.043 54L67.0264 48.8047H66.7529C64.9984 51.015 63.1868 52.5531 61.3184 53.4189C59.4727 54.262 57.0573 54.6836 54.0723 54.6836C50.4036 54.6836 47.5098 53.6354 45.3906 51.5391C43.2943 49.4427 42.2461 46.4577 42.2461 42.584C42.2461 38.528 43.6589 35.543 46.4844 33.6289C49.3327 31.6921 53.6165 30.6211 59.3359 30.416L65.9668 30.2109V28.5361C65.9668 24.6624 63.9844 22.7256 60.0195 22.7256C56.9661 22.7256 53.3773 23.6484 49.2529 25.4941L45.8008 18.4531C50.1986 16.1517 55.0749 15.001 60.4297 15.001C65.5566 15.001 69.4873 16.1175 72.2217 18.3506C74.9561 20.5837 76.3232 23.9788 76.3232 28.5361V54H69.043ZM65.9668 36.2949L61.9336 36.4316C58.903 36.5228 56.6471 37.0697 55.166 38.0723C53.6849 39.0749 52.9443 40.6016 52.9443 42.6523C52.9443 45.5918 54.6305 47.0615 58.0029 47.0615C60.4183 47.0615 62.3438 46.3665 63.7793 44.9766C65.2376 43.5866 65.9668 41.7409 65.9668 39.4395V36.2949Z" fill="#23ACCF"/>
<path d="M113.75 42.6523C113.75 46.5716 112.383 49.5566 109.648 51.6074C106.937 53.6582 102.869 54.6836 97.4463 54.6836C94.6663 54.6836 92.2965 54.4899 90.3369 54.1025C88.3773 53.738 86.543 53.1911 84.834 52.4619V43.8486C86.7708 44.7601 88.9469 45.5234 91.3623 46.1387C93.8005 46.7539 95.9424 47.0615 97.7881 47.0615C101.571 47.0615 103.462 45.9678 103.462 43.7803C103.462 42.96 103.211 42.2992 102.71 41.7979C102.209 41.2738 101.343 40.6927 100.112 40.0547C98.8818 39.3939 97.2412 38.6305 95.1904 37.7646C92.251 36.5342 90.0863 35.3949 88.6963 34.3467C87.3291 33.2985 86.3265 32.1022 85.6885 30.7578C85.0732 29.3906 84.7656 27.7158 84.7656 25.7334C84.7656 22.3382 86.0758 19.7178 88.6963 17.8721C91.3395 16.0036 95.0765 15.0693 99.9072 15.0693C104.51 15.0693 108.988 16.0719 113.34 18.0771L110.195 25.5967C108.281 24.7764 106.493 24.1042 104.829 23.5801C103.166 23.056 101.468 22.7939 99.7363 22.7939C96.6602 22.7939 95.1221 23.6257 95.1221 25.2891C95.1221 26.2233 95.612 27.0322 96.5918 27.7158C97.5944 28.3994 99.7705 29.4134 103.12 30.7578C106.105 31.9655 108.293 33.0934 109.683 34.1416C111.073 35.1898 112.098 36.3975 112.759 37.7646C113.42 39.1318 113.75 40.7611 113.75 42.6523Z" fill="#23ACCF"/>
<path d="M121.44 5.90918C121.44 2.514 123.332 0.816406 127.114 0.816406C130.897 0.816406 132.788 2.514 132.788 5.90918C132.788 7.52702 132.31 8.79167 131.353 9.70312C130.418 10.5918 129.006 11.0361 127.114 11.0361C123.332 11.0361 121.44 9.32715 121.44 5.90918ZM132.31 54H121.885V15.7871H132.31V54Z" fill="#23ACCF"/>
<path d="M158.799 54.6836C146.904 54.6836 140.957 48.1553 140.957 35.0986C140.957 28.6045 142.575 23.6484 145.811 20.2305C149.046 16.7897 153.683 15.0693 159.722 15.0693C164.142 15.0693 168.107 15.9352 171.616 17.667L168.54 25.7334C166.899 25.0726 165.373 24.5371 163.96 24.127C162.547 23.694 161.134 23.4775 159.722 23.4775C154.299 23.4775 151.587 27.3285 151.587 35.0303C151.587 42.5042 154.299 46.2412 159.722 46.2412C161.727 46.2412 163.584 45.9792 165.293 45.4551C167.002 44.9082 168.711 44.0651 170.42 42.9258V51.8467C168.734 52.9176 167.025 53.6582 165.293 54.0684C163.584 54.4785 161.419 54.6836 158.799 54.6836Z" fill="#23ACCF"/>
<path d="M177.837 49.1123C177.837 47.1982 178.35 45.7513 179.375 44.7715C180.4 43.7917 181.893 43.3018 183.853 43.3018C185.744 43.3018 187.202 43.8031 188.228 44.8057C189.276 45.8083 189.8 47.2438 189.8 49.1123C189.8 50.9124 189.276 52.3366 188.228 53.3848C187.179 54.4102 185.721 54.9229 183.853 54.9229C181.938 54.9229 180.457 54.4216 179.409 53.4189C178.361 52.3936 177.837 50.958 177.837 49.1123Z" fill="#23ACCF"/>
<path d="M196.191 70.8164C193.525 70.8164 191.235 70.5316 189.321 69.9619V61.7588C190.916 62.1917 192.546 62.4082 194.209 62.4082C195.964 62.4082 197.24 61.9183 198.037 60.9385C198.857 59.9587 199.268 58.5117 199.268 56.5977V15.7871H209.692V58.1357C209.692 62.1917 208.519 65.3135 206.172 67.501C203.825 69.7113 200.498 70.8164 196.191 70.8164ZM198.823 5.90918C198.823 2.514 200.715 0.816406 204.497 0.816406C208.28 0.816406 210.171 2.514 210.171 5.90918C210.171 7.52702 209.692 8.79167 208.735 9.70312C207.801 10.5918 206.388 11.0361 204.497 11.0361C200.715 11.0361 198.823 9.32715 198.823 5.90918Z" fill="#23ACCF"/>
<path d="M247.324 42.6523C247.324 46.5716 245.957 49.5566 243.223 51.6074C240.511 53.6582 236.444 54.6836 231.021 54.6836C228.241 54.6836 225.871 54.4899 223.911 54.1025C221.951 53.738 220.117 53.1911 218.408 52.4619V43.8486C220.345 44.7601 222.521 45.5234 224.937 46.1387C227.375 46.7539 229.517 47.0615 231.362 47.0615C235.145 47.0615 237.036 45.9678 237.036 43.7803C237.036 42.96 236.785 42.2992 236.284 41.7979C235.783 41.2738 234.917 40.6927 233.687 40.0547C232.456 39.3939 230.815 38.6305 228.765 37.7646C225.825 36.5342 223.66 35.3949 222.271 34.3467C220.903 33.2985 219.901 32.1022 219.263 30.7578C218.647 29.3906 218.34 27.7158 218.34 25.7334C218.34 22.3382 219.65 19.7178 222.271 17.8721C224.914 16.0036 228.651 15.0693 233.481 15.0693C238.084 15.0693 242.562 16.0719 246.914 18.0771L243.77 25.5967C241.855 24.7764 240.067 24.1042 238.403 23.5801C236.74 23.056 235.042 22.7939 233.311 22.7939C230.234 22.7939 228.696 23.6257 228.696 25.2891C228.696 26.2233 229.186 27.0322 230.166 27.7158C231.169 28.3994 233.345 29.4134 236.694 30.7578C239.679 31.9655 241.867 33.0934 243.257 34.1416C244.647 35.1898 245.672 36.3975 246.333 37.7646C246.994 39.1318 247.324 40.7611 247.324 42.6523Z" fill="#23ACCF"/>
</g>
<path d="M77.832 80V62.8672H79.8242V78.1953H87.3828V80H77.832Z" fill="black"/>
<path d="M90.3008 80V62.8672H92.293V80H90.3008Z" fill="black"/>
<path d="M97.0039 62.8672H101.844C104.117 62.8672 105.762 63.207 106.777 63.8867C107.793 64.5664 108.301 65.6406 108.301 67.1094C108.301 68.125 108.016 68.9648 107.445 69.6289C106.883 70.2852 106.059 70.7109 104.973 70.9062V71.0234C107.574 71.4688 108.875 72.8359 108.875 75.125C108.875 76.6562 108.355 77.8516 107.316 78.7109C106.285 79.5703 104.84 80 102.98 80H97.0039V62.8672ZM98.9961 70.2031H102.277C103.684 70.2031 104.695 69.9844 105.312 69.5469C105.93 69.1016 106.238 68.3555 106.238 67.3086C106.238 66.3477 105.895 65.6562 105.207 65.2344C104.52 64.8047 103.426 64.5898 101.926 64.5898H98.9961V70.2031ZM98.9961 71.8906V78.3008H102.57C103.953 78.3008 104.992 78.0352 105.688 77.5039C106.391 76.9648 106.742 76.125 106.742 74.9844C106.742 73.9219 106.383 73.1406 105.664 72.6406C104.953 72.1406 103.867 71.8906 102.406 71.8906H98.9961Z" fill="black"/>
<path d="M114.559 72.875V80H112.566V62.8672H117.266C119.367 62.8672 120.918 63.2695 121.918 64.0742C122.926 64.8789 123.43 66.0898 123.43 67.707C123.43 69.9727 122.281 71.5039 119.984 72.3008L124.637 80H122.281L118.133 72.875H114.559ZM114.559 71.1641H117.289C118.695 71.1641 119.727 70.8867 120.383 70.332C121.039 69.7695 121.367 68.9297 121.367 67.8125C121.367 66.6797 121.031 65.8633 120.359 65.3633C119.695 64.8633 118.625 64.6133 117.148 64.6133H114.559V71.1641Z" fill="black"/>
<path d="M138.172 80L136.039 74.5508H129.172L127.062 80H125.047L131.82 62.7969H133.496L140.234 80H138.172ZM135.418 72.7578L133.426 67.4492C133.168 66.7773 132.902 65.9531 132.629 64.9766C132.457 65.7266 132.211 66.5508 131.891 67.4492L129.875 72.7578H135.418Z" fill="black"/>
<path d="M144.582 72.875V80H142.59V62.8672H147.289C149.391 62.8672 150.941 63.2695 151.941 64.0742C152.949 64.8789 153.453 66.0898 153.453 67.707C153.453 69.9727 152.305 71.5039 150.008 72.3008L154.66 80H152.305L148.156 72.875H144.582ZM144.582 71.1641H147.312C148.719 71.1641 149.75 70.8867 150.406 70.332C151.062 69.7695 151.391 68.9297 151.391 67.8125C151.391 66.6797 151.055 65.8633 150.383 65.3633C149.719 64.8633 148.648 64.6133 147.172 64.6133H144.582V71.1641Z" fill="black"/>
<path d="M161.785 71.4336L166.355 62.8672H168.512L162.793 73.3555V80H160.777V73.4492L155.07 62.8672H157.25L161.785 71.4336Z" fill="black"/>
</svg>
