<svg width="240" height="87" viewBox="0 0 240 87" fill="none" xmlns="http://www.w3.org/2000/svg">
<g filter="url(#filter0_i_806_29)">
<g opacity="0.95">
<path d="M8.40962 5.0623V18.5942C10.0828 16.8635 11.7887 15.5439 13.5271 14.6352C15.2655 13.705 17.4168 13.2399 19.981 13.2399C22.9363 13.2399 25.5222 13.943 27.7387 15.3491C29.9769 16.7337 31.7045 18.7565 32.9214 21.4174C34.16 24.0567 34.7793 27.1936 34.7793 30.8281C34.7793 33.5107 34.4316 35.9769 33.7363 38.2268C33.0626 40.4551 32.0739 42.3913 30.7701 44.0355C29.4663 45.6797 27.8799 46.9561 26.0111 47.8647C24.1641 48.7517 22.1214 49.1952 19.8832 49.1952C18.5142 49.1952 17.2212 49.0329 16.0043 48.7084C14.8092 48.3839 13.7879 47.962 12.9404 47.4428C12.0929 46.902 11.3649 46.3503 10.7565 45.7878C10.1698 45.2254 9.38748 44.3816 8.40962 43.2567V44.1329C8.40962 45.7987 8.00761 47.0642 7.20359 47.9296C6.39957 48.7733 5.37824 49.1952 4.13962 49.1952C2.87926 49.1952 1.8688 48.7733 1.10824 47.9296C0.369415 47.0642 0 45.7987 0 44.1329V5.45171C0 3.6561 0.35855 2.30399 1.07565 1.39538C1.81448 0.465126 2.8358 0 4.13962 0C5.50862 0 6.56254 0.443492 7.30137 1.33048C8.0402 2.19583 8.40962 3.43977 8.40962 5.0623ZM8.83336 31.3798C8.83336 34.9061 9.63738 37.6211 11.2454 39.5249C12.8752 41.407 15.0048 42.3481 17.6341 42.3481C19.8723 42.3481 21.7955 41.3854 23.4035 39.46C25.0333 37.5129 25.8482 34.733 25.8482 31.1202C25.8482 28.7837 25.5113 26.7718 24.8377 25.0843C24.1641 23.3969 23.2079 22.0989 21.9693 21.1903C20.7307 20.26 19.2856 19.7949 17.6341 19.7949C15.9392 19.7949 14.4289 20.26 13.1034 21.1903C11.7778 22.0989 10.7348 23.4294 9.9742 25.1817C9.21364 26.9124 8.83336 28.9784 8.83336 31.3798Z" fill="url(#paint0_linear_806_29)"/>
<path d="M64.4085 44.1978C62.2572 45.8636 60.1711 47.1183 58.1502 47.962C56.151 48.7841 53.9019 49.1952 51.403 49.1952C49.1213 49.1952 47.1112 48.7517 45.3728 47.8647C43.6561 46.9561 42.3306 45.7338 41.3962 44.1978C40.4618 42.6618 39.9946 40.996 39.9946 39.2004C39.9946 36.7774 40.766 34.7114 42.3088 33.0023C43.8517 31.2932 45.9704 30.1466 48.6649 29.5625C49.2299 29.4327 50.6315 29.1407 52.8698 28.6864C55.108 28.232 57.0202 27.821 58.6065 27.4532C60.2146 27.0638 61.953 26.5987 63.8218 26.0579C63.7132 23.7214 63.2351 22.0123 62.3876 20.9307C61.5619 19.8273 59.8343 19.2757 57.2049 19.2757C54.945 19.2757 53.2392 19.5894 52.0875 20.2167C50.9575 20.8441 49.9796 21.7852 49.1539 23.0399C48.3499 24.2947 47.774 25.1276 47.4263 25.5386C47.1004 25.9281 46.3833 26.1228 45.275 26.1228C44.2754 26.1228 43.4062 25.8091 42.6674 25.1817C41.9503 24.5327 41.5917 23.7106 41.5917 22.7154C41.5917 21.1578 42.1459 19.6434 43.2541 18.1724C44.3624 16.7013 46.0899 15.4898 48.4368 14.5379C50.7836 13.586 53.7064 13.1101 57.2049 13.1101C61.1164 13.1101 64.1912 13.5752 66.4295 14.5054C68.6677 15.4141 70.2431 16.8635 71.1558 18.8538C72.0902 20.8441 72.5574 23.4834 72.5574 26.7718C72.5574 28.8486 72.5465 30.6118 72.5248 32.0612C72.5248 33.5107 72.5139 35.1224 72.4922 36.8964C72.4922 38.5622 72.7638 40.3037 73.3071 42.1209C73.8721 43.9165 74.1546 45.0739 74.1546 45.5931C74.1546 46.5018 73.72 47.3347 72.8507 48.0918C72.0033 48.8274 71.0363 49.1952 69.9498 49.1952C69.0371 49.1952 68.1353 48.7733 67.2443 47.9296C66.3534 47.0642 65.4081 45.8203 64.4085 44.1978ZM63.8218 31.3798C62.518 31.8557 60.6166 32.3641 58.1176 32.9049C55.6404 33.4242 53.9237 33.8136 52.9675 34.0732C52.0114 34.3111 51.0987 34.7979 50.2295 35.5334C49.3603 36.2474 48.9257 37.2533 48.9257 38.5514C48.9257 39.8926 49.4364 41.0392 50.4577 41.9911C51.479 42.9214 52.8154 43.3865 54.4669 43.3865C56.2271 43.3865 57.846 43.0079 59.3236 42.2507C60.823 41.4719 61.9204 40.4768 62.6158 39.2653C63.4198 37.924 63.8218 35.7173 63.8218 32.6453V31.3798Z" fill="url(#paint1_linear_806_29)"/>
<path d="M110.27 37.6103C110.27 40.0549 109.673 42.1534 108.478 43.9057C107.282 45.6364 105.511 46.9561 103.164 47.8647C100.839 48.7517 98.0035 49.1952 94.6571 49.1952C91.4627 49.1952 88.7247 48.7084 86.443 47.7349C84.1614 46.7614 82.4773 45.5499 81.3907 44.1004C80.3042 42.6293 79.761 41.1582 79.761 39.6871C79.761 38.7136 80.1087 37.8807 80.804 37.1884C81.4994 36.4961 82.3795 36.15 83.4443 36.15C84.3787 36.15 85.0958 36.3772 85.5956 36.8315C86.0953 37.2858 86.5734 37.924 87.0297 38.7461C87.9424 40.3253 89.0289 41.5044 90.2893 42.2832C91.5714 43.062 93.3098 43.4514 95.5046 43.4514C97.2864 43.4514 98.7424 43.062 99.8723 42.2832C101.024 41.4827 101.6 40.5741 101.6 39.5573C101.6 37.9997 101.002 36.8639 99.8072 36.15C98.6337 35.4361 96.6889 34.7546 93.9726 34.1056C90.9086 33.3484 88.4096 32.5588 86.4756 31.7367C84.5634 30.893 83.0314 29.7897 81.8797 28.4268C80.728 27.0638 80.1521 25.3872 80.1521 23.3969C80.1521 21.6229 80.6845 19.9463 81.7493 18.3671C82.8141 16.7878 84.3787 15.533 86.443 14.6028C88.5291 13.6509 91.039 13.175 93.9726 13.175C96.276 13.175 98.3404 13.4129 100.166 13.8889C102.013 14.3648 103.545 15.003 104.762 15.8035C106 16.6039 106.935 17.4909 107.565 18.4644C108.217 19.4379 108.543 20.3898 108.543 21.3201C108.543 22.3369 108.195 23.1698 107.5 23.8188C106.826 24.4678 105.859 24.7923 104.599 24.7923C103.686 24.7923 102.904 24.5327 102.252 24.0135C101.622 23.4943 100.894 22.7154 100.068 21.677C99.3943 20.8117 98.6011 20.1194 97.6884 19.6002C96.7758 19.081 95.5372 18.8214 93.9726 18.8214C92.3645 18.8214 91.0281 19.1675 89.9633 19.8598C88.8986 20.5304 88.3662 21.3741 88.3662 22.3909C88.3662 23.3212 88.7573 24.0892 89.5396 24.6949C90.3219 25.279 91.3758 25.7658 92.7013 26.1552C94.0269 26.5446 95.8522 27.0206 98.1774 27.583C100.937 28.2537 103.186 29.0541 104.925 29.9844C106.685 30.9146 108.01 32.018 108.901 33.2943C109.814 34.5491 110.27 35.9878 110.27 37.6103Z" fill="url(#paint2_linear_806_29)"/>
<path d="M126.698 18.2048V43.8084C126.698 45.5823 126.275 46.9236 125.427 47.8322C124.58 48.7409 123.504 49.1952 122.2 49.1952C120.896 49.1952 119.832 48.73 119.006 47.7998C118.202 46.8695 117.8 45.5391 117.8 43.8084V18.4644C117.8 16.7121 118.202 15.3924 119.006 14.5054C119.832 13.6184 120.896 13.175 122.2 13.175C123.504 13.175 124.58 13.6184 125.427 14.5054C126.275 15.3924 126.698 16.6255 126.698 18.2048ZM122.298 9.05373C121.059 9.05373 119.995 8.67514 119.104 7.91795C118.234 7.16077 117.8 6.0899 117.8 4.70534C117.8 3.45058 118.245 2.42298 119.136 1.62253C120.049 0.800449 121.103 0.389408 122.298 0.389408C123.45 0.389408 124.471 0.757181 125.362 1.49273C126.253 2.22828 126.698 3.29915 126.698 4.70534C126.698 6.06827 126.264 7.13914 125.395 7.91795C124.525 8.67514 123.493 9.05373 122.298 9.05373Z" fill="url(#paint3_linear_806_29)"/>
<path d="M167.834 38.2268C167.834 39.3302 167.497 40.5092 166.823 41.764C166.171 43.0187 165.161 44.2194 163.792 45.366C162.445 46.4909 160.739 47.3996 158.674 48.0918C156.61 48.7841 154.285 49.1303 151.699 49.1303C146.201 49.1303 141.91 47.5402 138.824 44.36C135.738 41.1582 134.195 36.8747 134.195 31.5096C134.195 27.8751 134.902 24.6625 136.314 21.8717C137.726 19.081 139.769 16.9284 142.442 15.4141C145.115 13.8781 148.309 13.1101 152.025 13.1101C154.328 13.1101 156.436 13.4454 158.349 14.116C160.283 14.7867 161.912 15.652 163.238 16.7121C164.585 17.7721 165.606 18.9079 166.302 20.1194C167.019 21.3092 167.377 22.4234 167.377 23.4618C167.377 24.5219 166.975 25.4197 166.171 26.1552C165.389 26.8908 164.433 27.2585 163.303 27.2585C162.564 27.2585 161.945 27.0746 161.445 26.7069C160.967 26.3175 160.424 25.7009 159.815 24.8572C158.729 23.213 157.588 21.9799 156.393 21.1578C155.219 20.3357 153.72 19.9247 151.895 19.9247C149.265 19.9247 147.147 20.9523 145.539 23.0075C143.93 25.0411 143.126 27.8318 143.126 31.3798C143.126 33.0456 143.333 34.5816 143.746 35.9878C144.159 37.3723 144.756 38.5622 145.539 39.5573C146.321 40.5308 147.266 41.2772 148.374 41.7964C149.483 42.294 150.699 42.5428 152.025 42.5428C153.807 42.5428 155.328 42.1317 156.588 41.3097C157.87 40.4876 159 39.2328 159.978 37.5454C160.522 36.5502 161.108 35.7714 161.738 35.2089C162.369 34.6465 163.14 34.3652 164.053 34.3652C165.139 34.3652 166.041 34.7763 166.758 35.5983C167.475 36.4204 167.834 37.2966 167.834 38.2268Z" fill="url(#paint4_linear_806_29)"/>
<path d="M178.199 49.1952C176.852 49.1952 175.689 48.7625 174.711 47.8971C173.734 47.0318 173.245 45.8203 173.245 44.2627C173.245 42.943 173.712 41.8072 174.646 40.8553C175.581 39.9035 176.732 39.4275 178.101 39.4275C179.47 39.4275 180.633 39.9035 181.589 40.8553C182.567 41.7856 183.056 42.9214 183.056 44.2627C183.056 45.7987 182.567 47.0101 181.589 47.8971C180.633 48.7625 179.503 49.1952 178.199 49.1952Z" fill="url(#paint5_linear_806_29)"/>
<path d="M202.189 18.4644V48.5137C202.189 50.6554 202.113 52.397 201.961 53.7382C201.831 55.1012 201.635 56.0855 201.374 56.6913C199.897 60.4555 196.757 62.3377 191.954 62.3377C189.26 62.3377 187.217 61.9699 185.826 61.2343C184.436 60.4988 183.74 59.4279 183.74 58.0217C183.74 56.9833 184.055 56.1288 184.686 55.4581C185.316 54.8091 186.142 54.4846 187.163 54.4846C187.293 54.4846 187.511 54.4954 187.815 54.5171C188.097 54.5603 188.521 54.6036 189.086 54.6469C189.673 54.6901 190.075 54.7118 190.292 54.7118C191.487 54.7118 192.28 54.2466 192.671 53.3164C193.084 52.3861 193.291 50.7203 193.291 48.319V18.4644C193.291 16.7121 193.704 15.3924 194.529 14.5054C195.355 13.6184 196.442 13.175 197.789 13.175C199.093 13.175 200.147 13.6184 200.951 14.5054C201.776 15.3708 202.189 16.6904 202.189 18.4644ZM197.789 9.05373C196.55 9.05373 195.486 8.67514 194.595 7.91795C193.725 7.16077 193.291 6.0899 193.291 4.70534C193.291 3.45058 193.736 2.42298 194.627 1.62253C195.54 0.800449 196.594 0.389408 197.789 0.389408C198.941 0.389408 199.962 0.757181 200.853 1.49273C201.744 2.22828 202.189 3.29915 202.189 4.70534C202.189 6.06827 201.755 7.13914 200.886 7.91795C200.016 8.67514 198.984 9.05373 197.789 9.05373Z" fill="url(#paint6_linear_806_29)"/>
<path d="M240 37.6103C240 40.0549 239.402 42.1534 238.207 43.9057C237.012 45.6364 235.241 46.9561 232.894 47.8647C230.569 48.7517 227.733 49.1952 224.387 49.1952C221.192 49.1952 218.454 48.7084 216.173 47.7349C213.891 46.7614 212.207 45.5499 211.12 44.1004C210.034 42.6293 209.491 41.1582 209.491 39.6871C209.491 38.7136 209.838 37.8807 210.534 37.1884C211.229 36.4961 212.109 36.15 213.174 36.15C214.108 36.15 214.826 36.3772 215.325 36.8315C215.825 37.2858 216.303 37.924 216.759 38.7461C217.672 40.3253 218.759 41.5044 220.019 42.2832C221.301 43.062 223.04 43.4514 225.234 43.4514C227.016 43.4514 228.472 43.062 229.602 42.2832C230.754 41.4827 231.33 40.5741 231.33 39.5573C231.33 37.9997 230.732 36.8639 229.537 36.15C228.363 35.4361 226.419 34.7546 223.702 34.1056C220.638 33.3484 218.139 32.5588 216.205 31.7367C214.293 30.893 212.761 29.7897 211.609 28.4268C210.458 27.0638 209.882 25.3872 209.882 23.3969C209.882 21.6229 210.414 19.9463 211.479 18.3671C212.544 16.7878 214.108 15.533 216.173 14.6028C218.259 13.6509 220.769 13.175 223.702 13.175C226.006 13.175 228.07 13.4129 229.895 13.8889C231.743 14.3648 233.274 15.003 234.491 15.8035C235.73 16.6039 236.664 17.4909 237.295 18.4644C237.946 19.4379 238.272 20.3898 238.272 21.3201C238.272 22.3369 237.925 23.1698 237.229 23.8188C236.556 24.4678 235.589 24.7923 234.328 24.7923C233.416 24.7923 232.633 24.5327 231.982 24.0135C231.351 23.4943 230.623 22.7154 229.798 21.677C229.124 20.8117 228.331 20.1194 227.418 19.6002C226.506 19.081 225.267 18.8214 223.702 18.8214C222.094 18.8214 220.758 19.1675 219.693 19.8598C218.628 20.5304 218.096 21.3741 218.096 22.3909C218.096 23.3212 218.487 24.0892 219.269 24.6949C220.052 25.279 221.106 25.7658 222.431 26.1552C223.757 26.5446 225.582 27.0206 227.907 27.583C230.667 28.2537 232.916 29.0541 234.654 29.9844C236.415 30.9146 237.74 32.018 238.631 33.2943C239.544 34.5491 240 35.9878 240 37.6103Z" fill="url(#paint7_linear_806_29)"/>
</g>
<path d="M85.5703 79.1602V81H77.0391V79.1602H85.5703ZM77.4844 63.9375V81H75.2227V63.9375H77.4844ZM90.5859 63.9375V81H88.3242V63.9375H90.5859ZM100.781 73.0195H96.457L96.4336 71.2031H100.359C101.008 71.2031 101.574 71.0938 102.059 70.875C102.543 70.6562 102.918 70.3438 103.184 69.9375C103.457 69.5234 103.594 69.0312 103.594 68.4609C103.594 67.8359 103.473 67.3281 103.23 66.9375C102.996 66.5391 102.633 66.25 102.141 66.0703C101.656 65.8828 101.039 65.7891 100.289 65.7891H96.9609V81H94.6992V63.9375H100.289C101.164 63.9375 101.945 64.0273 102.633 64.207C103.32 64.3789 103.902 64.6523 104.379 65.0273C104.863 65.3945 105.23 65.8633 105.48 66.4336C105.73 67.0039 105.855 67.6875 105.855 68.4844C105.855 69.1875 105.676 69.8242 105.316 70.3945C104.957 70.957 104.457 71.418 103.816 71.7773C103.184 72.1367 102.441 72.3672 101.59 72.4688L100.781 73.0195ZM100.676 81H95.5664L96.8438 79.1602H100.676C101.395 79.1602 102.004 79.0352 102.504 78.7852C103.012 78.5352 103.398 78.1836 103.664 77.7305C103.93 77.2695 104.062 76.7266 104.062 76.1016C104.062 75.4688 103.949 74.9219 103.723 74.4609C103.496 74 103.141 73.6445 102.656 73.3945C102.172 73.1445 101.547 73.0195 100.781 73.0195H97.5586L97.582 71.2031H101.988L102.469 71.8594C103.289 71.9297 103.984 72.1641 104.555 72.5625C105.125 72.9531 105.559 73.4531 105.855 74.0625C106.16 74.6719 106.312 75.3438 106.312 76.0781C106.312 77.1406 106.078 78.0391 105.609 78.7734C105.148 79.5 104.496 80.0547 103.652 80.4375C102.809 80.8125 101.816 81 100.676 81ZM109.652 63.9375H115.301C116.582 63.9375 117.664 64.1328 118.547 64.5234C119.438 64.9141 120.113 65.4922 120.574 66.2578C121.043 67.0156 121.277 67.9492 121.277 69.0586C121.277 69.8398 121.117 70.5547 120.797 71.2031C120.484 71.8438 120.031 72.3906 119.438 72.8438C118.852 73.2891 118.148 73.6211 117.328 73.8398L116.695 74.0859H111.387L111.363 72.2461H115.371C116.184 72.2461 116.859 72.1055 117.398 71.8242C117.938 71.5352 118.344 71.1484 118.617 70.6641C118.891 70.1797 119.027 69.6445 119.027 69.0586C119.027 68.4023 118.898 67.8281 118.641 67.3359C118.383 66.8438 117.977 66.4648 117.422 66.1992C116.875 65.9258 116.168 65.7891 115.301 65.7891H111.914V81H109.652V63.9375ZM119.625 81L115.477 73.2656L117.832 73.2539L122.039 80.8594V81H119.625ZM130.758 65.4492L125.109 81H122.801L129.305 63.9375H130.793L130.758 65.4492ZM135.492 81L129.832 65.4492L129.797 63.9375H131.285L137.812 81H135.492ZM135.199 74.6836V76.5352H125.613V74.6836H135.199ZM140.098 63.9375H145.746C147.027 63.9375 148.109 64.1328 148.992 64.5234C149.883 64.9141 150.559 65.4922 151.02 66.2578C151.488 67.0156 151.723 67.9492 151.723 69.0586C151.723 69.8398 151.562 70.5547 151.242 71.2031C150.93 71.8438 150.477 72.3906 149.883 72.8438C149.297 73.2891 148.594 73.6211 147.773 73.8398L147.141 74.0859H141.832L141.809 72.2461H145.816C146.629 72.2461 147.305 72.1055 147.844 71.8242C148.383 71.5352 148.789 71.1484 149.062 70.6641C149.336 70.1797 149.473 69.6445 149.473 69.0586C149.473 68.4023 149.344 67.8281 149.086 67.3359C148.828 66.8438 148.422 66.4648 147.867 66.1992C147.32 65.9258 146.613 65.7891 145.746 65.7891H142.359V81H140.098V63.9375ZM150.07 81L145.922 73.2656L148.277 73.2539L152.484 80.8594V81H150.07ZM155.109 63.9375L159.539 72.5039L163.98 63.9375H166.547L160.664 74.625V81H158.402V74.625L152.52 63.9375H155.109Z" fill="#4A4A4A"/>
</g>
<defs>
<filter id="filter0_i_806_29" x="0" y="0" width="240" height="85" filterUnits="userSpaceOnUse" color-interpolation-filters="sRGB">
<feFlood flood-opacity="0" result="BackgroundImageFix"/>
<feBlend mode="normal" in="SourceGraphic" in2="BackgroundImageFix" result="shape"/>
<feColorMatrix in="SourceAlpha" type="matrix" values="0 0 0 0 0 0 0 0 0 0 0 0 0 0 0 0 0 0 127 0" result="hardAlpha"/>
<feOffset dy="4"/>
<feGaussianBlur stdDeviation="2"/>
<feComposite in2="hardAlpha" operator="arithmetic" k2="-1" k3="1"/>
<feColorMatrix type="matrix" values="0 0 0 0 0 0 0 0 0 0 0 0 0 0 0 0 0 0 0.25 0"/>
<feBlend mode="normal" in2="shape" result="effect1_innerShadow_806_29"/>
</filter>
<linearGradient id="paint0_linear_806_29" x1="0" y1="0" x2="231.429" y2="55.3247" gradientUnits="userSpaceOnUse">
<stop stop-color="#BE5592"/>
<stop offset="0.510417" stop-color="#567EE9"/>
<stop offset="1" stop-color="#23ACCF"/>
</linearGradient>
<linearGradient id="paint1_linear_806_29" x1="0" y1="0" x2="231.429" y2="55.3247" gradientUnits="userSpaceOnUse">
<stop stop-color="#BE5592"/>
<stop offset="0.510417" stop-color="#567EE9"/>
<stop offset="1" stop-color="#23ACCF"/>
</linearGradient>
<linearGradient id="paint2_linear_806_29" x1="0" y1="0" x2="231.429" y2="55.3247" gradientUnits="userSpaceOnUse">
<stop stop-color="#BE5592"/>
<stop offset="0.510417" stop-color="#567EE9"/>
<stop offset="1" stop-color="#23ACCF"/>
</linearGradient>
<linearGradient id="paint3_linear_806_29" x1="0" y1="0" x2="231.429" y2="55.3247" gradientUnits="userSpaceOnUse">
<stop stop-color="#BE5592"/>
<stop offset="0.510417" stop-color="#567EE9"/>
<stop offset="1" stop-color="#23ACCF"/>
</linearGradient>
<linearGradient id="paint4_linear_806_29" x1="0" y1="0" x2="231.429" y2="55.3247" gradientUnits="userSpaceOnUse">
<stop stop-color="#BE5592"/>
<stop offset="0.510417" stop-color="#567EE9"/>
<stop offset="1" stop-color="#23ACCF"/>
</linearGradient>
<linearGradient id="paint5_linear_806_29" x1="0" y1="0" x2="231.429" y2="55.3247" gradientUnits="userSpaceOnUse">
<stop stop-color="#BE5592"/>
<stop offset="0.510417" stop-color="#567EE9"/>
<stop offset="1" stop-color="#23ACCF"/>
</linearGradient>
<linearGradient id="paint6_linear_806_29" x1="0" y1="0" x2="231.429" y2="55.3247" gradientUnits="userSpaceOnUse">
<stop stop-color="#BE5592"/>
<stop offset="0.510417" stop-color="#567EE9"/>
<stop offset="1" stop-color="#23ACCF"/>
</linearGradient>
<linearGradient id="paint7_linear_806_29" x1="0" y1="0" x2="231.429" y2="55.3247" gradientUnits="userSpaceOnUse">
<stop stop-color="#BE5592"/>
<stop offset="0.510417" stop-color="#567EE9"/>
<stop offset="1" stop-color="#23ACCF"/>
</linearGradient>
</defs>
</svg>
