<svg width="61" height="38" viewBox="0 0 61 38" fill="none" xmlns="http://www.w3.org/2000/svg">
<g style="mix-blend-mode:luminosity">
<path d="M30.5 26V1L21.2534 14.5L17.5 19.25L30.5 26Z" fill="#DCDCDC"/>
<path d="M14.5 36.5C26.1308 36.7449 32.9332 36.5795 45.5 36.5C40.1408 32.6212 36.9295 30.2984 30.5 26C23.9773 30.0722 20.4671 32.3386 14.5 36.5Z" fill="#DCDCDC"/>
<path d="M1 12.5L17.5 19.25L21.2534 14.5C13.1919 13.9211 8.79574 13.3511 1 12.5Z" fill="#DCDCDC"/>
<path d="M43.5 19.25L60 12.5C51.9275 13.4061 47.4429 13.8652 39.7466 14.5L43.5 19.25Z" fill="#DCDCDC"/>
<path d="M1 12.5L14.5 36.5C20.4671 32.3386 23.9773 30.0722 30.5 26L17.5 19.25L1 12.5Z" fill="#BCBCBC"/>
<path d="M30.5 26L43.5 19.25L39.7466 14.5L30.5 1V26Z" fill="white"/>
<path d="M45.5 36.5L60 12.5L43.5 19.25L30.5 26C36.9295 30.2984 40.1408 32.6212 45.5 36.5Z" fill="white"/>
<path d="M1 12.5L14.5 36.5M1 12.5L17.5 19.25M1 12.5C8.79574 13.3511 13.1919 13.9211 21.2534 14.5M14.5 36.5C26.1308 36.7449 32.9332 36.5795 45.5 36.5M14.5 36.5C20.4671 32.3386 23.9773 30.0722 30.5 26M45.5 36.5L60 12.5M45.5 36.5C40.1408 32.6212 36.9295 30.2984 30.5 26M60 12.5L43.5 19.25M60 12.5C51.9275 13.4061 47.4429 13.8652 39.7466 14.5M30.5 26L43.5 19.25M30.5 26V1M30.5 26L17.5 19.25M43.5 19.25L39.7466 14.5M30.5 1L39.7466 14.5M30.5 1L21.2534 14.5M17.5 19.25L21.2534 14.5" stroke="#404040"/>
</g>
</svg>
